HIERARCHY
ROOT hip
{
  OFFSET 0 0 0
  CHANNELS 6 Xposition Yposition Zposition Zrotation Yrotation Xrotation
  JOINT abdomen
  {
    OFFSET 0 20.6881 -0.73152
    CHANNELS 3 Zrotation Xrotation Yrotation
    JOINT chest
    {
      OFFSET 0 11.7043 -0.48768
      CHANNELS 3 Zrotation Xrotation Yrotation
      JOINT neck
      {
        OFFSET 0 22.1894 -2.19456
        CHANNELS 3 Zrotation Xrotation Yrotation
        JOINT head
        {
          OFFSET -0.24384 7.07133 1.2192
          CHANNELS 3 Zrotation Xrotation Yrotation
          JOINT leftEye
          {
            OFFSET 4.14528 8.04674 8.04672
            CHANNELS 3 Zrotation Xrotation Yrotation
            End Site
            {
              OFFSET 1 0 0
            }
          }
          JOINT rightEye
          {
            OFFSET -3.6576 8.04674 8.04672
            CHANNELS 3 Zrotation Xrotation Yrotation
            End Site
            {
              OFFSET 1 0 0
            }
          }
        }
      }
      JOINT rCollar
      {
        OFFSET -2.68224 19.2634 -4.8768
        CHANNELS 3 Zrotation Xrotation Yrotation
        JOINT rShldr
        {
          OFFSET -8.77824 -1.95073 1.46304
          CHANNELS 3 Zrotation Xrotation Yrotation
          JOINT rForeArm
          {
            OFFSET -28.1742 -1.7115 0.48768
            CHANNELS 3 Zrotation Xrotation Yrotation
            JOINT rHand
            {
              OFFSET -22.5879 0.773209 7.07136
              CHANNELS 3 Zrotation Xrotation Yrotation
              JOINT rThumb1
              {
                OFFSET -1.2192 -0.487915 3.41376
                CHANNELS 3 Zrotation Xrotation Yrotation
                JOINT rThumb2
                {
                  OFFSET -3.37035 -0.52449 3.41376
                  CHANNELS 3 Zrotation Xrotation Yrotation
                  End Site
                  {
                    OFFSET -1.78271 -1.18214 1.43049
                  }
                }
              }
              JOINT rIndex1
              {
                OFFSET -7.75947 0.938293 5.60832
                CHANNELS 3 Zrotation Xrotation Yrotation
                JOINT rIndex2
                {
                  OFFSET -2.54057 -0.884171 1.56538
                  CHANNELS 3 Zrotation Xrotation Yrotation
                  End Site
                  {
                    OFFSET -1.62519 -0.234802 1.16502
                  }
                }
              }
              JOINT rMid1
              {
                OFFSET -8.24714 1.18213 3.41376
                CHANNELS 3 Zrotation Xrotation Yrotation
                JOINT rMid2
                {
                  OFFSET -3.10165 -0.590103 1.0647
                  CHANNELS 3 Zrotation Xrotation Yrotation
                  End Site
                  {
                    OFFSET -2.48547 -0.328903 0.83742
                  }
                }
              }
              JOINT rRing1
              {
                OFFSET -8.82822 0.546677 1.51678
                CHANNELS 3 Zrotation Xrotation Yrotation
                JOINT rRing2
                {
                  OFFSET -2.60934 -0.819778 -0.0198488
                  CHANNELS 3 Zrotation Xrotation Yrotation
                  End Site
                  {
                    OFFSET -2.33842 -0.294052 0.168128
                  }
                }
              }
              JOINT rPinky1
              {
                OFFSET -8.27202 -0.0477905 -0.4584
                CHANNELS 3 Zrotation Xrotation Yrotation
                JOINT rPinky2
                {
                  OFFSET -1.82734 -0.647385 -0.700984
                  CHANNELS 3 Zrotation Xrotation Yrotation
                  End Site
                  {
                    OFFSET -1.69225 -0.51767 -0.607171
                  }
                }
              }
            }
          }
        }
      }
      JOINT lCollar
      {
        OFFSET 2.68224 19.2634 -4.8768
        CHANNELS 3 Zrotation Xrotation Yrotation
        JOINT lShldr
        {
          OFFSET 8.77824 -1.95073 1.46304
          CHANNELS 3 Zrotation Xrotation Yrotation
          JOINT lForeArm
          {
            OFFSET 28.1742 -1.7115 0.48768
            CHANNELS 3 Zrotation Xrotation Yrotation
            JOINT lHand
            {
              OFFSET 22.5879 0.773209 7.07136
              CHANNELS 3 Zrotation Xrotation Yrotation
              JOINT lThumb1
              {
                OFFSET 1.2192 -0.487915 3.41376
                CHANNELS 3 Zrotation Xrotation Yrotation
                JOINT lThumb2
                {
                  OFFSET 3.37035 -0.52449 3.41376
                  CHANNELS 3 Zrotation Xrotation Yrotation
                  End Site
                  {
                    OFFSET 1.78271 -1.18214 1.43049
                  }
                }
              }
              JOINT lIndex1
              {
                OFFSET 7.75947 0.938293 5.60832
                CHANNELS 3 Zrotation Xrotation Yrotation
                JOINT lIndex2
                {
                  OFFSET 2.54057 -0.884171 1.56538
                  CHANNELS 3 Zrotation Xrotation Yrotation
                  End Site
                  {
                    OFFSET 1.62519 -0.234802 1.16502
                  }
                }
              }
              JOINT lMid1
              {
                OFFSET 8.24714 1.18213 3.41376
                CHANNELS 3 Zrotation Xrotation Yrotation
                JOINT lMid2
                {
                  OFFSET 3.10165 -0.590103 1.0647
                  CHANNELS 3 Zrotation Xrotation Yrotation
                  End Site
                  {
                    OFFSET 2.48547 -0.328903 0.83742
                  }
                }
              }
              JOINT lRing1
              {
                OFFSET 8.82822 0.546677 1.51678
                CHANNELS 3 Zrotation Xrotation Yrotation
                JOINT lRing2
                {
                  OFFSET 2.60934 -0.819778 -0.0198488
                  CHANNELS 3 Zrotation Xrotation Yrotation
                  End Site
                  {
                    OFFSET 2.33842 -0.294052 0.168128
                  }
                }
              }
              JOINT lPinky1
              {
                OFFSET 8.27202 -0.0477905 -0.4584
                CHANNELS 3 Zrotation Xrotation Yrotation
                JOINT lPinky2
                {
                  OFFSET 1.82734 -0.647385 -0.700984
                  CHANNELS 3 Zrotation Xrotation Yrotation
                  End Site
                  {
                    OFFSET 1.69225 -0.51767 -0.607171
                  }
                }
              }
            }
          }
        }
      }
    }
  }
  JOINT rButtock
  {
    OFFSET -8.77824 4.35084 1.2192
    CHANNELS 3 Zrotation Xrotation Yrotation
    JOINT rThigh
    {
      OFFSET 0 -1.70687 -2.19456
      CHANNELS 3 Zrotation Xrotation Yrotation
      JOINT rShin
      {
        OFFSET 0 -36.8199 0.73152
        CHANNELS 3 Zrotation Xrotation Yrotation
        JOINT rFoot
        {
          OFFSET 0.73152 -45.1104 -5.12064
          CHANNELS 3 Zrotation Xrotation Yrotation
          End Site
          {
            OFFSET -1.1221 -3.69964 12.103
          }
        }
      }
    }
  }
  JOINT lButtock
  {
    OFFSET 8.77824 4.35084 1.2192
    CHANNELS 3 Zrotation Xrotation Yrotation
    JOINT lThigh
    {
      OFFSET 0 -1.70687 -2.19456
      CHANNELS 3 Zrotation Xrotation Yrotation
      JOINT lShin
      {
        OFFSET 0 -36.8199 0.73152
        CHANNELS 3 Zrotation Xrotation Yrotation
        JOINT lFoot
        {
          OFFSET -0.73152 -45.1104 -5.12064
          CHANNELS 3 Zrotation Xrotation Yrotation
          End Site
          {
            OFFSET 1.1221 -3.69964 12.103
          }
        }
      }
    }
  }
}
MOTION
Frames:	5
Frame Time:	0.03333
0.0 0.0 0.0 0.0 0.0 0.0 0.0 0.0 0.0 0.0 0.0 0.0 0.0 0.0 0.0 0.0 0.0 0.0 0.0 0.0 0.0 0.0 0.0 0.0 0.0 0.0 0.0 0.0 0.0 0.0 0.0 0.0 0.0 0.0 0.0 0.0 0.0 0.0 0.0 0.0 0.0 0.0 0.0 0.0 0.0 0.0 0.0 0.0 0.0 0.0 0.0 0.0 0.0 0.0 0.0 0.0 0.0 0.0 0.0 0.0 0.0 0.0 0.0 0.0 0.0 0.0 0.0 0.0 0.0 0.0 0.0 0.0 0.0 0.0 0.0 0.0 0.0 0.0 0.0 0.0 0.0 0.0 0.0 0.0 0.0 0.0 0.0 0.0 0.0 0.0 0.0 0.0 0.0 0.0 0.0 0.0 0.0 0.0 0.0 0.0 0.0 0.0 0.0 0.0 0.0 0.0 0.0 0.0 0.0 0.0 0.0 0.0 0.0 0.0 0.0 0.0 0.0 0.0 0.0 0.0 0.0 0.0 0.0 0.0 0.0 0.0 0.0 0.0 0.0 0.0 0.0 0.0
0.2874 63.096399999999996 -0.030699999999999998 -120.324205 89.69037 -121.280785 1.105668 -0.525175 -180.0 -1.190518 -12.389634 167.904155 -1.161193 -19.598919 9.57812 -42.816966 9.844079 -90.239313 -141.791059 2.429457 7.006392 10.666552 -7.051898 -66.853249 23.399069 65.166453 60.779305 8.916019 -6.454136 3.46526 -0.215797 -6.399053 136.530213 140.526477 -16.698784 31.933534 -170.043774 5.055158 46.515171 -173.073136 9.505247 -113.614533 -17.558661 20.359168 -131.950269 118.518573 -18.506826 -144.058531 138.102752 -20.443276 -108.596848 178.481573 -82.945446 -169.013128 175.423801 11.281232 -97.784487 -32.479587 -3.731273 5.981722 64.430446 8.206941 -55.525982 -104.083865 -27.056216 -100.789152 18.990216 65.509729 -100.306125 -21.315502 -62.219626 -9.609882 -16.530561 83.645964 -149.420476 163.810154 60.259248 -75.069122 -179.572077 -5.690846 -54.410434 -36.354971 27.789657 -32.522829 82.372084 -23.434285 -75.648848 106.706991 57.860639 80.164179 -118.491495 78.10863 -72.787582 -24.908943 1.859755 -105.538203 -176.684975 14.198706 77.028825 -33.818253 -56.21972 -48.1066 -42.480287 1.747911 78.988864 13.665725 -1.216448 -15.224673 -47.944574 -23.0192 -66.72011 4.129178 53.235016 -3.26082 -3.787731 6.153249 -144.768337 -68.658393 2.79537 104.785654 -53.892731 -9.66376 -83.019307 -3.486827 55.782659 -0.0 2.350091 -7.115897 -0.608495 75.604594 1.165515 -99.457679
0.42900000000000005 61.8838 1.0538 174.045254 -52.528128 -175.809234 -9.337223 15.762628 -99.604394 7.032216 3.81701 102.198353 5.594356 35.073092 176.792218 20.418775 51.72489 133.04561 58.320799 -1.633061 -2.926328 -31.852117 8.161141 -28.073519 -143.459391 9.226224 161.689283 152.280541 -14.110385 159.303994 -6.010183 8.36988 39.508521 3.78372 -7.793826 0.978947 0.496012 -15.037468 -18.98524 18.023985 -12.199264 15.446529 -45.894318 -28.573985 -18.204476 5.010364 68.338627 32.674981 -164.350387 -7.163904 145.429329 86.09018 -64.794994 63.606545 -17.759556 -20.33807 -24.306988 -72.787029 60.64582 98.086256 -58.836148 83.509696 84.923225 2.711935 24.319564 2.123585 165.303755 -33.483065 -152.190009 39.433127 -6.106895 18.037808 -2.675811 -10.714555 82.29804 -177.610857 -5.885467 -145.34126 -73.38198 -45.029095 -27.320905 42.814953 -32.078175 59.355906 140.598276 -61.408647 -165.481696 113.697021 -75.584577 -142.997923 160.935706 21.929532 -147.044253 -172.567219 -10.271032 -159.829254 96.498516 -62.177023 97.839644 -84.109252 47.078837 49.282922 -2.929527 2.755363 -17.101176 4.491977 -18.938677 48.156631 -139.109128 52.540488 -47.489649 139.134016 25.916562 -0.0 1.045192 57.496235 -118.398338 -15.344064 63.059113 108.997796 -96.510433 72.439576 -75.391611 -122.705502 80.842521 -131.319755 -32.663479 6.372575 94.191471 29.000941 -10.447526 -13.317103
0.9581 67.25529999999999 2.2822999999999998 174.243423 -59.153557 -175.583504 -12.19654 17.979795 -0.0 9.489353 -11.415064 -6.21435 -6.185154 25.598077 -19.624031 17.935717 -40.670301 1.7912 33.942353 -22.667773 -66.591763 -4.975473 1.157373 -26.175014 -1.385657 13.337698 10.560369 -38.018687 -84.868288 -101.717947 -166.734658 -85.265694 114.794009 174.678437 -10.933014 139.948995 4.100603 -20.48419 -16.900853 20.617843 -3.007546 9.375762 -168.750468 -13.525675 132.260018 -175.265903 43.415703 128.684613 -163.138499 3.985788 130.112097 -178.399596 8.030096 116.316262 -2.695456 -0.09497 -7.265633 31.048756 -39.410139 24.906721 -13.784469 -10.256765 13.719051 23.807873 19.653671 -6.296924 143.873112 8.434338 -151.829233 -133.14867 -26.593752 -160.765817 -166.62746 11.758921 -106.004488 176.886023 5.728685 -152.388074 -108.630588 -53.233803 -39.164942 56.735802 -4.087421 25.007897 132.147659 -69.343739 -145.309308 45.340382 47.341858 -61.211913 162.654115 -33.85458 -147.468948 154.301131 -19.431763 -145.592164 86.879329 71.662161 -83.548289 174.0656 -4.767352 -150.739484 -46.713922 61.445028 17.341376 96.833089 -41.729328 79.975067 -80.405568 10.162485 0.0 52.767415 -53.071392 47.069216 63.094066 16.880967 59.934957 148.751551 52.638631 150.522203 -173.947738 80.264357 -0.0 -91.199274 81.921802 1.592846 35.80255 4.778885 -43.955392 -148.712462 -14.162903 6.384343
0.8829 66.981 2.8458 177.228348 -58.590996 -177.149827 -9.923403 18.920429 -0.0 9.767758 -13.935499 -9.871718 -11.883957 21.623169 -13.730098 17.639252 -34.662338 -5.25288 27.720852 -7.629267 -30.243428 -21.818878 -2.77471 14.323836 -0.21305 -2.24274 10.682536 -56.715997 -64.509229 -116.492313 -120.430409 11.449235 -177.756911 20.551452 -49.80755 7.844614 -1.194214 -5.731729 -16.012219 34.113939 -20.756565 9.596892 -154.313774 9.333742 113.676755 -3.644043 -24.720078 0.090141 -27.031094 19.363652 18.154166 -150.386554 -82.858571 148.565004 4.365572 2.970513 -0.017321 6.805331 20.614436 -2.914407 -149.834902 -51.206602 -130.306081 128.365618 58.789993 -117.193884 148.675542 -22.945466 -165.364792 44.05148 5.850387 14.231434 177.103289 23.518729 136.728791 10.072691 19.503999 -6.137313 -6.562292 24.362314 -2.428302 117.089854 -10.31332 -130.988329 141.537888 -69.61321 -139.025633 118.598603 8.932351 -114.908162 -151.864483 -58.455245 -115.870367 5.242018 -21.610657 5.894255 72.803497 -82.605886 82.497023 -1.893457 29.88767 2.667239 -23.094489 39.655472 16.431296 169.410093 1.514772 153.873743 -7.711779 20.801787 12.109286 -63.341088 -56.176676 -154.261784 -70.959018 6.302142 -88.161154 -36.833122 16.01326 -174.217769 48.959209 4.874525 21.275556 -30.950236 16.574724 -103.644313 -49.151868 -7.23135 -57.304079 -152.176233 7.043228 -179.431877
